# AST/ASF file generated using VICON BodyLanguage
# -----------------------------------------------
:version 1.10
:name VICON
:units
  mass 1.0
  length 0.45
  angle deg
:documentation
   .ast/.asf automatically generated from VICON data using
   VICON BodyBuilder and BodyLanguage model FoxedUp or BRILLIANT.MOD
:root
   order TX TY TZ RX RY RZ
   axis XYZ
   position 0 0 0  
   orientation 0 0 0 
:bonedata
  begin
     id 1 
     name lhipjoint
     direction 0.630082 -0.636569 0.44472 
     length 2.82754 
     axis 0 0 0  XYZ
  end
  begin
     id 2 
     name lfemur
     direction 0.34202 -0.939693 0  
     length 7.26371  
     axis 0 0 20  XYZ
    dof rx ry rz
    limits (-160.0 20.0)
           (-70.0 70.0)
           (-60.0 70.0)
  end
  begin
     id 3 
     name ltibia
     direction 0.34202 -0.939693 0   
     length 7.88616   
     axis 0 0 20   XYZ
    dof rx
    limits (-10.0 170.0)
  end
  begin
     id 4 
     name lfoot
     direction 0.0603448 -0.165796 0.984312   
     length 1.77861   
     axis -90 7.62852e-016 20   XYZ
    dof rx rz
    limits (-45.0 90.0)
           (-70.0 20.0)
  end
  begin
     id 5 
     name ltoes
     direction 1.53577e-011 -4.21876e-011 1   
     length 0.902235   
     axis -90 7.62852e-016 20   XYZ
    dof rx
    limits (-90.0 20.0)
  end
  begin
     id 6 
     name rhipjoint
     direction -0.656778 -0.61817 0.431866   
     length 2.9117  
     axis 0 0 0  XYZ 
  end
  begin
     id 7 
     name rfemur
     direction -0.34202 -0.939693 0   
     length 6.81603   
     axis 0 0 -20   XYZ
    dof rx ry rz
    limits (-160.0 20.0)
           (-70.0 70.0)
           (-70.0 60.0)
  end
  begin
     id 8 
     name rtibia
     direction -0.34202 -0.939693 0   
     length 8.05997   
     axis 0 0 -20   XYZ
    dof rx
    limits (-10.0 170.0)
 end
 begin
     id 9 
     name rfoot
     direction -0.0862404 -0.236944 0.967688   
     length 1.84899  
     axis -90 -7.62852e-016 -20   XYZ
    dof rx rz
    limits (-45.0 90.0)
           (-20.0 70.0)
  end
  begin
     id 10 
     name rtoes
     direction -1.53561e-011 -4.21798e-011 1   
     length 0.931579   
     axis -90 -7.62852e-016 -20   XYZ
    dof rx
    limits (-90.0 20.0)
  end
  begin
     id 11 
     name lowerback
     direction -0.0110203 0.991769 -0.127564   
     length 2.05686   
     axis 0 0 0   XYZ
    dof rx ry rz
    limits (-20.0 45.0)
           (-30.0 30.0)
           (-30.0 30.0)
  end
  begin
     id 12 
     name upperback
     direction 0.0109719 0.99993 -0.00432479   
     length 2.06234   
     axis 0 0 0   XYZ
    dof rx ry rz
    limits (-20.0 45.0)
           (-30.0 30.0)
           (-30.0 30.0)
  end
  begin
     id 13 
     name thorax
     direction 0.0173308 0.998351 0.0547306   
     length 2.09856   
     axis 0 0 0   XYZ
    dof rx ry rz
    limits (-20.0 45.0)
           (-30.0 30.0)
           (-30.0 30.0)
  end
  begin
     id 14 
     name lowerneck
     direction -0.0311736 0.989033 0.144366   
     length 1.98151   
     axis 0 0 0   XYZ
    dof rx ry rz
    limits (-20.0 45.0)
           (-30.0 30.0)
           (-30.0 30.0)
  end
  begin
     id 15 
     name upperneck
     direction 0.0421057 0.975772 -0.214698   
     length 2.01457   
     axis 0 0 0   XYZ
    dof rx ry rz
    limits (-20.0 45.0)
           (-30.0 30.0)
           (-30.0 30.0)
  end
  begin
     id 16
     name head
     direction 0.0136911 0.995958 -0.0887718  
     length 2.03562  
     axis 0 0 0   XYZ
    dof rx ry rz
    limits (-20.0 45.0)
           (-30.0 30.0)
           (-30.0 30.0)
  end
  begin
     id 17 
     name lclavicle
     direction 0.915335 0.396201 0.0720134  
     length 4.16217  
     axis 0 0 0   XYZ
    dof ry rz
    limits (-20.0 10.0)
           (0.0 20.0)
  end
  begin
     id 18 
     name lhumerus
     direction 1 -4.48965e-011 6.383e-018   
     length 4.93042   
     axis -180 -30 -90   XYZ
    dof rx ry rz
    limits (-60.0 90.0)
           (-90.0 90.0)
           (-90.0 90.0)
  end
  begin
     id 19
     name lradius
     direction 1 -4.48972e-011 8.8689e-027   
     length 3.68177   
     axis -180 -30 -90   XYZ
    dof rx
    limits (-10.0 170.0)
  end
  begin
     id 20
     name lwrist
     direction 1 -4.48953e-011 1.17971e-026   
     length 1.84089   
     axis -7.69454e-015 90 90   XYZ
    dof ry
    limits (-180.0 0.0)
 end
  begin
     id 21 
     name lhand
     direction 1 -4.49027e-011 2.35802e-026   
     length 0.721479   
     axis -1.50533e-014 90 90   XYZ
    dof rx rz
    limits (-90.0 90.0)
           (-45.0 45.0)
  end
  begin
     id 22 
     name lfingers
     direction 1 -4.48915e-011 4.72027e-026   
     length 0.581675   
     axis -3.01059e-014 90 90   XYZ
    dof rx
    limits (0.0 90.0)
  end
  begin
     id 23
     name lthumb
     direction 0.707107 -6.34948e-011 0.707107   
     length 0.835172   
     axis -90 45 -5.12164e-014   XYZ
    dof rx rz
    limits (-45.0 45.0)
           (-45.0 45.0)
  end
  begin
     id 24 
     name rclavicle
     direction -0.882781 0.469197 0.0234974   
     length 3.95647  
     axis 0 0 0   XYZ 
    dof ry rz
    limits (-10.0 20.0)
           (-20.0 0.0)
  end
  begin
     id 25 
     name rhumerus
     direction -1 -4.48965e-011 -1.54906e-018  
     length 5.07905   
     axis -180 30 90   XYZ
    dof rx ry rz
    limits (-90.0 60.0)
           (-90.0 90.0)
           (-90.0 90.0)
  end
  begin
     id 26 
     name rradius
     direction -1 -4.48972e-011 5.47489e-027   
     length 3.54394   
     axis -180 30 90   XYZ
    dof rx
    limits (-10.0 170.0)
  end
  begin
     id 27 
     name rwrist
     direction -1 -4.48955e-011 1.17969e-026   
     length 1.77197   
     axis -7.69454e-015 -90 -90   XYZ
    dof ry
    limits (-180.0 0.0)
  end
  begin
     id 28
     name rhand
     direction -1 -4.48982e-011 2.35888e-026   
     length 0.681156   
     axis -1.50533e-014 -90 -90   XYZ
    dof rx rz
    limits (-90.0 90.0)
           (-45.0 45.0)
  end
  begin
     id 29
     name rfingers
     direction -1 -4.48955e-011 4.71877e-026   
     length 0.549165   
     axis -3.01059e-014 -90 -90   XYZ
    dof rx
    limits (0.0 90.0)
  end
  begin
     id 30
     name rthumb
     direction -0.707107 -6.3491e-011 0.707107   
     length 0.788495   
     axis -90 -45 5.12164e-014   XYZ
    dof rx rz
    limits (-45.0 45.0)
           (-45.0 45.0)
  end
:hierarchy
  begin
    root lhipjoint rhipjoint lowerback
    lhipjoint lfemur
    lfemur ltibia
    ltibia lfoot
    lfoot ltoes
    rhipjoint rfemur
    rfemur rtibia
    rtibia rfoot
    rfoot rtoes
    lowerback upperback
    upperback thorax
    thorax lowerneck lclavicle rclavicle
    lowerneck upperneck
    upperneck head
    lclavicle lhumerus
    lhumerus lradius
    lradius lwrist
    lwrist lhand lthumb
    lhand lfingers
    rclavicle rhumerus
    rhumerus rradius
    rradius rwrist
    rwrist rhand rthumb
    rhand rfingers
  end

#!OML:ASF H:\Bending\Project 1\Capture day 1\Session 1\Subject.ASF
:FULLY-SPECIFIED
:DEGREES
476
root -10.5374 17.9166 -16.4304 -67.4158 87.8589 -72.5651
lowerback 3.51622 -0.0810909 0.919794
upperback -2.88807 0.0790817 2.16904
thorax -4.96198 0.063711 1.72244
lowerneck -23.0717 -5.26013 -7.75875
upperneck 28.7233 -6.40306 6.33166
head 14.1751 -2.601 2.68902
rclavicle 7.70291e-016 1.03368e-014
rhumerus -37.3247 -16.6117 -71.2553
rradius 22.4622
rwrist 28.1879
rhand -15.8247 -16.8333
rfingers 7.12502
rthumb 10.3693 -46.5576
lclavicle 7.70291e-016 1.03368e-014
lhumerus -35.5691 12.6495 84.7047
lradius 21.3117
lwrist 15.0445
lhand -31.4368 7.87636
lfingers 7.12502
lthumb -4.70488 37.8041
rfemur 2.5312 2.40283 13.3139
rtibia -4.77083e-015
rfoot -9.33433 -16.5979
rtoes 7.34725
lfemur -10.4444 -28.9556 -8.85767
ltibia 22.8213
lfoot -30.762 20.8612
ltoes 3.34685
477
root -10.5365 17.9158 -16.4301 -68.4642 87.8471 -73.6072
lowerback 3.53054 -0.0368299 1.0089
upperback -2.88048 0.142574 2.14849
thorax -4.96344 0.0916574 1.64615
lowerneck -23.0482 -5.29335 -7.80592
upperneck 28.7477 -6.42479 6.30384
head 14.1836 -2.61941 2.68222
rclavicle -2.27981e-015 -1.19271e-015
rhumerus -37.5334 -11.2391 -73.8819
rradius 23.7986
rwrist 22.1468
rhand -15.9852 -18.4942
rfingers 7.12502
rthumb 10.2144 -48.2263
lclavicle -2.27981e-015 -1.19271e-015
lhumerus -35.6272 12.7516 84.5845
lradius 21.1672
lwrist 14.8245
lhand -31.4354 7.81999
lfingers 7.12502
lthumb -4.70356 37.7478
rfemur 2.53377 2.37321 13.3585
rtibia -1.74931e-014
rfoot -9.19053 -16.6691
rtoes 6.3815
lfemur -10.4472 -28.9752 -8.82626
ltibia 22.8313
lfoot -30.811 20.7473
ltoes 3.66288
478
root -10.5364 17.9172 -16.4306 -69.537 87.8317 -74.7193
lowerback 3.51316 0.00197497 1.10552
upperback -2.88975 0.199145 2.12683
thorax -4.96406 0.116055 1.56502
lowerneck -23.022 -5.31554 -7.80536
upperneck 28.7655 -6.43448 6.23201
head 14.1836 -2.63377 2.6515
rclavicle 1.85118e-015 1.03368e-014
rhumerus -38.0007 -7.19883 -75.8029
rradius 25.0267
rwrist 17.5677
rhand -16.0845 -19.7259
rfingers 7.12502
rthumb 10.1186 -49.4626
lclavicle 1.85118e-015 1.03368e-014
lhumerus -35.6797 12.8138 84.4866
lradius 21.0696
lwrist 14.6574
lhand -31.427 7.76756
lfingers 7.12502
lthumb -4.69542 37.6955
rfemur 2.48199 2.33598 13.3968
rtibia 2.8625e-014
rfoot -9.08317 -16.7156
rtoes 5.80842
lfemur -10.5089 -28.9248 -8.76252
ltibia 22.828
lfoot -30.7843 20.622
ltoes 3.82742
479
root -10.536 17.9191 -16.4314 -70.8053 87.8208 -76.0343
lowerback 3.48568 0.0267577 1.19138
upperback -2.90136 0.236008 2.10344
thorax -4.96082 0.131002 1.48971
lowerneck -22.9945 -5.3221 -7.75555
upperneck 28.7765 -6.43082 6.13075
head 14.1755 -2.6412 2.60288
rclavicle 1.98163e-015 -1.55052e-014
rhumerus -38.4231 -4.95275 -76.8598
rradius 25.8203
rwrist 14.9593
rhand -16.0702 -20.3512
rfingers 7.12502
rthumb 10.1324 -50.0873
lclavicle 1.98163e-015 -1.55052e-014
lhumerus -35.7257 12.8336 84.4079
lradius 21.0201
lwrist 14.5623
lhand -31.4115 7.7351
lfingers 7.12502
lthumb -4.6805 37.6634
rfemur 2.43244 2.28779 13.4223
rtibia -6.36111e-015
rfoot -9.06387 -16.7179
rtoes 5.85281
lfemur -10.5796 -28.8276 -8.69657
ltibia 22.8133
lfoot -30.6878 20.512
ltoes 3.81462
480
root -10.5351 17.9208 -16.4324 -71.7402 87.8122 -77.0092
lowerback 3.45666 0.0429807 1.25881
upperback -2.90922 0.259993 2.07917
thorax -4.95251 0.140121 1.42483
lowerneck -22.9727 -5.31406 -7.67823
upperneck 28.7891 -6.41445 6.02381
head 14.1669 -2.64078 2.54981
rclavicle 4.14342e-015 -1.59028e-014
rhumerus -38.6379 -4.32202 -77.1522
rradius 26.0886
rwrist 14.1349
rhand -15.9445 -20.4408
rfingers 7.12502
rthumb 10.2536 -50.1709
lclavicle 4.14342e-015 -1.59028e-014
lhumerus -35.7625 12.8183 84.3508
lradius 21.0166
lwrist 14.5437
lhand -31.383 7.73047
lfingers 7.12502
lthumb -4.65294 37.6594
rfemur 2.39491 2.25062 13.433
rtibia -1.27222e-014
rfoot -9.10304 -16.691
rtoes 6.30263
lfemur -10.635 -28.7142 -8.64733
ltibia 22.7942
lfoot -30.561 20.4543
ltoes 3.6533
481
root -10.5337 17.9219 -16.4336 -72.1997 87.8047 -77.4978
lowerback 3.42976 0.0557745 1.31078
upperback -2.91153 0.278351 2.05684
thorax -4.93951 0.14698 1.37108
lowerneck -22.9642 -5.29737 -7.6076
upperneck 28.814 -6.38853 5.93573
head 14.1667 -2.63393 2.50763
rclavicle 7.95139e-016 1.70955e-014
rhumerus -38.6663 -4.75692 -76.9366
rradius 25.9751
rwrist 14.4976
rhand -15.7691 -20.2299
rfingers 7.12502
rthumb 10.4229 -49.9515
lclavicle 7.95139e-016 1.70955e-014
lhumerus -35.7868 12.7808 84.3212
lradius 21.0551
lwrist 14.5911
lhand -31.3323 7.74772
lfingers 7.12502
lthumb -4.60401 37.6777
rfemur 2.3681 2.23135 13.4346
rtibia -1.74931e-014
rfoot -9.14211 -16.6646
rtoes 6.75586
lfemur -10.6734 -28.6109 -8.61884
ltibia 22.7832
lfoot -30.4333 20.4622
ltoes 3.3577
482
root -10.5319 17.9223 -16.4348 -72.2953 87.7961 -77.6084
lowerback 3.41112 0.0700915 1.35235
upperback -2.90762 0.298393 2.04029
thorax -4.92481 0.155132 1.32902
lowerneck -22.9728 -5.28058 -7.57366
upperneck 28.8575 -6.35914 5.88294
head 14.1811 -2.62414 2.48698
rclavicle 8.26199e-016 -2.62396e-014
rhumerus -38.613 -5.57267 -76.5366
rradius 25.7286
rwrist 15.2945
rhand -15.6277 -19.987
rfingers 7.12502
rthumb 10.5593 -49.7017
lclavicle 8.26199e-016 -2.62396e-014
lhumerus -35.7962 12.7258 84.3286
lradius 21.132
lwrist 14.6911
lhand -31.2566 7.77058
lfingers 7.12502
lthumb -4.53089 37.7021
rfemur 2.35316 2.22794 13.4383
rtibia 3.18055e-015
rfoot -9.13216 -16.6654
rtoes 6.85856
lfemur -10.6944 -28.5336 -8.60671
ltibia 22.7871
lfoot -30.3238 20.5211
ltoes 2.95768
483
root -10.53 17.9221 -16.4358 -72.3712 87.7847 -77.6885
lowerback 3.40139 0.0878257 1.39342
upperback -2.89958 0.323428 2.03046
thorax -4.91094 0.165926 1.29383
lowerneck -22.9954 -5.27146 -7.58854
upperneck 28.9166 -6.33424 5.86915
head 14.2096 -2.61576 2.48985
rclavicle -1.86982e-015 4.37326e-015
rhumerus -38.5645 -6.18722 -76.2362
rradius 25.5619
rwrist 15.8798
rhand -15.5825 -19.8965
rfingers 7.12502
rthumb 10.6029 -49.609
lclavicle -1.86982e-015 4.37326e-015
lhumerus -35.7896 12.6396 84.3839
lradius 21.2463
lwrist 14.8383
lhand -31.1681 7.78157
lfingers 7.12502
lthumb -4.44544 37.7149
rfemur 2.34792 2.22818 13.4532
rtibia 1.27222e-014
rfoot -9.05931 -16.7014
rtoes 6.48358
lfemur -10.7073 -28.4879 -8.59851
ltibia 22.8064
lfoot -30.2417 20.5953
ltoes 2.52776
484
root -10.5281 17.9216 -16.4366 -72.7954 87.7714 -78.1123
lowerback 3.3973 0.107401 1.44278
upperback -2.89012 0.351745 2.02455
thorax -4.89881 0.17817 1.25781
lowerneck -23.0235 -5.27376 -7.64218
upperneck 28.981 -6.32031 5.88462
head 14.2456 -2.61212 2.50918
rclavicle 8.75895e-016 -3.57812e-015
rhumerus -38.5565 -6.32195 -76.1797
rradius 25.5745
rwrist 15.9427
rhand -15.6514 -20.0018
rfingers 7.12502
rthumb 10.5364 -49.7177
lclavicle 8.75895e-016 -3.57812e-015
lhumerus -35.768 12.4889 84.4978
lradius 21.4002
lwrist 15.0416
lhand -31.0965 7.77251
lfingers 7.12502
lthumb -4.37633 37.7073
rfemur 2.35121 2.21724 13.4809
rtibia -2.22639e-014
rfoot -8.95213 -16.7574
rtoes 5.78698
lfemur -10.7214 -28.4718 -8.5831
ltibia 22.8345
lfoot -30.1901 20.6442
ltoes 2.17768
485
root -10.5263 17.9212 -16.437 -73.7492 87.7592 -79.0652
lowerback 3.39454 0.125011 1.50341
upperback -2.88102 0.378086 2.01758
thorax -4.88767 0.189042 1.21455
lowerneck -23.0481 -5.28547 -7.70873
upperneck 29.0388 -6.3188 5.91096
head 14.2801 -2.61388 2.53263
rclavicle 3.10601e-017 2.10712e-014
rhumerus -38.5859 -6.0439 -76.3437
rradius 25.7512
rwrist 15.5582
rhand -15.8081 -20.223
rfingers 7.12502
rthumb 10.3853 -49.9465
lclavicle 3.10601e-017 2.10712e-014
lhumerus -35.735 12.2388 84.6755
lradius 21.5975
lwrist 15.3165
lhand -31.0776 7.74946
lfingers 7.12502
lthumb -4.35805 37.6846
rfemur 2.36378 2.18623 13.5146
rtibia -2.70347e-014
rfoot -8.86265 -16.8061
rtoes 5.09767
lfemur -10.7387 -28.4781 -8.5575
ltibia 22.8605
lfoot -30.1683 20.6395
ltoes 2.01965
486
root -10.5243 17.9211 -16.4373 -75.124 87.7516 -80.4387
lowerback 3.39059 0.136697 1.56941
upperback -2.87232 0.396486 2.00553
thorax -4.87607 0.195677 1.16362
lowerneck -23.0645 -5.29955 -7.75902
upperneck 29.0832 -6.32425 5.9276
head 14.3065 -2.6185 2.54778
rclavicle -2.83268e-015 -3.77691e-014
rhumerus -38.6257 -5.62217 -76.6022
rradius 26.0057
rwrist 15.0288
rhand -15.9962 -20.4268
rfingers 7.12502
rthumb 10.2038 -50.1593
lclavicle -2.83268e-015 -3.77691e-014
lhumerus -35.6959 11.8765 84.9099
lradius 21.8396
lwrist 15.6692
lhand -31.1336 7.7298
lfingers 7.12502
lthumb -4.41213 37.6638
rfemur 2.38719 2.13739 13.5429
rtibia -1.43125e-014
rfoot -8.83298 -16.8257
rtoes 4.71025
lfemur -10.7525 -28.4977 -8.52914
ltibia 22.874
lfoot -30.1733 20.578
ltoes 2.11286
487
root -10.5219 17.9214 -16.4375 -76.5714 87.7526 -81.8801
lowerback 3.38634 0.14036 1.62643
upperback -2.86259 0.403222 1.9882
thorax -4.86308 0.196688 1.11315
lowerneck -23.0739 -5.30724 -7.77462
upperneck 29.1156 -6.32632 5.92036
head 14.3233 -2.62148 2.54771
rclavicle -1.59649e-015 6.75868e-015
rhumerus -38.6395 -5.31682 -76.8265
rradius 26.2418
rwrist 14.6481
rhand -16.1521 -20.5043
rfingers 7.12502
rthumb 10.0534 -50.2441
lclavicle -1.59649e-015 6.75868e-015
lhumerus -35.6564 11.4332 85.1789
lradius 22.1208
lwrist 16.0821
lhand -31.2546 7.73257
lfingers 7.12502
lthumb -4.52898 37.6641
rfemur 2.42213 2.08338 13.555
rtibia 7.95139e-015
rfoot -8.86706 -16.8133
rtoes 4.70395
lfemur -10.7501 -28.5237 -8.51313
ltibia 22.8706
lfoot -30.1999 20.482
ltoes 2.42837
488
root -10.519 17.9215 -16.4375 -77.6884 87.7649 -82.9807
lowerback 3.38504 0.136238 1.65712
upperback -2.85006 0.397888 1.97041
thorax -4.84888 0.192552 1.07788
lowerneck -23.0811 -5.30194 -7.75351
upperneck 29.143 -6.31422 5.88412
head 14.3333 -2.61854 2.53219
rclavicle 2.44754e-015 1.59028e-014
rhumerus -38.6027 -5.24283 -76.9497
rradius 26.4046
rwrist 14.5477
rhand -16.2293 -20.4187
rfingers 7.12502
rthumb 9.97894 -50.1622
lclavicle 2.44754e-015 1.59028e-014
lhumerus -35.6195 10.9844 85.4477
lradius 22.4269
lwrist 16.5114
lhand -31.3941 7.76891
lfingers 7.12502
lthumb -4.6637 37.6976
rfemur 2.46695 2.04052 13.5473
rtibia 1.59028e-015
rfoot -8.92579 -16.7877
rtoes 4.89765
lfemur -10.7208 -28.5523 -8.52369
ltibia 22.8541
lfoot -30.2417 20.3881
ltoes 2.85336
489
root -10.5155 17.9213 -16.4373 -78.213 87.7884 -83.4751
lowerback 3.38994 0.126409 1.64833
upperback -2.83393 0.383024 1.95989
thorax -4.83466 0.185142 1.07296
lowerneck -23.0896 -5.2825 -7.70966
upperneck 29.1717 -6.28281 5.82556
head 14.3406 -2.60798 2.50745
rclavicle -1.44119e-015 2.18663e-014
rhumerus -38.5148 -5.35593 -76.9772
rradius 26.4981
rwrist 14.6785
rhand -16.2149 -20.2081
rfingers 7.12502
rthumb 9.99285 -49.9509
lclavicle -1.44119e-015 2.18663e-014
lhumerus -35.5837 10.6264 85.6787
lradius 22.7366
lwrist 16.903
lhand -31.4842 7.83581
lfingers 7.12502
lthumb -4.7507 37.7625
rfemur 2.51779 2.02013 13.5243
rtibia 1.11319e-014
rfoot -8.94959 -16.779
rtoes 4.96698
lfemur -10.6627 -28.5811 -8.5667
ltibia 22.8348
lfoot -30.2877 20.3312
ltoes 3.21918
490
root -10.5115 17.9204 -16.4369 -78.1747 87.8189 -83.3939
lowerback 3.40154 0.113125 1.59767
upperback -2.81502 0.361976 1.96364
thorax -4.82162 0.176362 1.10676
lowerneck -23.0994 -5.25386 -7.66451
upperneck 29.2038 -6.23587 5.75948
head 14.3478 -2.59171 2.48252
rclavicle -2.71465e-015 3.97569e-016
rhumerus -38.3945 -5.52354 -76.9592
rradius 26.5669
rwrist 14.8892
rhand -16.1327 -19.9515
rfingers 7.12502
rthumb 10.0722 -49.6904
lclavicle -2.71465e-015 3.97569e-016
lhumerus -35.5437 10.4394 85.8438
lradius 23.0281
lwrist 17.2134
lhand -31.4659 7.91885
lfingers 7.12502
lthumb -4.73306 37.846
rfemur 2.56996 2.0219 13.4973
rtibia 9.54166e-015
rfoot -8.8926 -16.8111
rtoes 4.63835
lfemur -10.5858 -28.6056 -8.63483
ltibia 22.825
lfoot -30.3246 20.3247
ltoes 3.38792
